<svg role="img" viewBox="0 0 50 50" fill="none" xmlns="http://www.w3.org/2000/svg">
   <path fill-rule="evenodd" clip-rule="evenodd" d="M21.5367 16.65C22.4327 16.6094 22.7183 16.5996 24.9996 16.5996C27.2809 16.5996 27.5672 16.6094 28.4639 16.6507C31.5173 16.7907 33.212 18.4889 33.3492 21.5367C33.3898 22.4327 33.3996 22.7183 33.3996 24.9996C33.3996 27.2809 33.3898 27.5672 33.3485 28.4632C33.2106 31.5166 31.511 33.2092 28.4632 33.3492C27.5672 33.3898 27.2809 33.3996 24.9996 33.3996C22.7183 33.3996 22.4327 33.3898 21.536 33.3492C18.4826 33.2092 16.79 31.5138 16.65 28.4632C16.6094 27.5672 16.5996 27.2809 16.5996 24.9996C16.5996 22.7183 16.6094 22.4327 16.6507 21.536C16.7907 18.4826 18.4861 16.79 21.5367 16.65ZM28.3946 18.1627C27.5084 18.1221 27.2424 18.1137 24.9996 18.1137C22.7568 18.1137 22.4915 18.1221 21.6053 18.162C19.3268 18.2656 18.2663 19.3464 18.162 21.6053C18.1221 22.4915 18.113 22.7568 18.113 24.9996C18.113 27.2431 18.1214 27.5084 18.162 28.3939C18.2656 30.6486 19.3233 31.7336 21.6053 31.8379C22.4908 31.8785 22.7568 31.8869 24.9996 31.8869C27.2438 31.8869 27.5084 31.8785 28.3946 31.8379C30.6731 31.7343 31.7336 30.6521 31.8379 28.3946C31.8778 27.5091 31.8862 27.2438 31.8862 25.0003C31.8862 22.7575 31.8785 22.4915 31.8379 21.606C31.7343 19.3464 30.671 18.2663 28.3946 18.1627Z" fill="currentColor"></path>
   <path fill-rule="evenodd" clip-rule="evenodd" d="M24.9996 20.6862C22.6175 20.6862 20.6862 22.6175 20.6862 24.9996C20.6862 27.3817 22.6175 29.3137 24.9996 29.3137C27.3817 29.3137 29.313 27.3824 29.313 24.9996C29.313 22.6175 27.3817 20.6862 24.9996 20.6862ZM24.9996 27.7996C23.4533 27.7996 22.1996 26.5466 22.1996 24.9996C22.1996 23.4533 23.4533 22.1996 24.9996 22.1996C26.5459 22.1996 27.7996 23.4533 27.7996 24.9996C27.7996 26.5466 26.5459 27.7996 24.9996 27.7996Z" fill="currentColor"></path>
   <path d="M28.4751 20.5161C28.4751 19.9596 28.9266 19.5081 29.4838 19.5081C30.0403 19.5081 30.4911 19.9596 30.4911 20.5161C30.4911 21.0726 30.0403 21.5241 29.4838 21.5241C28.9266 21.5241 28.4751 21.0726 28.4751 20.5161Z" fill="currentColor"></path>
</svg>
