<svg data-v-206defea="" role="img" viewBox="0 0 50 50" fill="none" xmlns="http://www.w3.org/2000/svg" class=""><path data-v-206defea="" d="M16.5996 18.6169C16.5996 19.7332 17.5007 20.6369 18.6183 20.6369C19.7319 20.6369 20.6369 19.7332 20.6369 18.6169C20.6369 17.5033 19.7319 16.5996 18.6183 16.5996C17.5007 16.5996 16.5996 17.5033 16.5996 18.6169Z" fill="currentColor"></path><path data-v-206defea="" d="M20.3605 33.3696V22.1678H16.8761V33.3696H20.3605Z" fill="currentColor"></path><path data-v-206defea="" d="M29.9191 33.3696H33.3996V27.2262C33.3996 24.21 32.7489 21.8901 29.2241 21.8901C27.5301 21.8901 26.393 22.8186 25.9287 23.6988H25.8818V22.1678H22.5447V33.3696H26.0213V27.8287C26.0213 26.3669 26.2978 24.952 28.1091 24.952C29.8956 24.952 29.9191 26.6225 29.9191 27.9213V33.3696Z" fill="currentColor"></path></svg>